<?xml version="1.0" encoding="UTF-8" standalone="no"?>
<svg width="719px" height="82px" viewBox="0 0 719 82" class="blackbox-svg" version="1.1" xmlns="http://www.w3.org/2000/svg" xmlns:xlink="http://www.w3.org/1999/xlink">
    <title>Blackbox</title>
    <defs></defs>
    <g stroke="none" stroke-width="0" fill-rule="evenodd">
        <g id="blackbox-group">
            <path d="M7.912,7.864 L30.36,7.864 C32.8133456,7.864 35.2666544,8.13999724 37.72,8.692 C40.1733456,9.24400276 42.3659903,10.1639936 44.298,11.452 C46.2300097,12.7400064 47.793994,14.4266562 48.99,16.512 C50.186006,18.5973438 50.784,21.2039844 50.784,24.332 C50.784,27.9506848 49.7413438,30.9866544 47.656,33.44 C45.5706562,35.8933456 42.8106838,37.5799954 39.376,38.5 L39.376,38.684 C41.4613438,38.9293346 43.3933244,39.4659959 45.172,40.294 C46.9506756,41.1220041 48.4839936,42.2106599 49.772,43.56 C51.0600064,44.9093401 52.0566631,46.5039908 52.762,48.344 C53.4673369,50.1840092 53.82,52.2386553 53.82,54.508 C53.82,57.6360156 53.1760064,60.3653217 51.888,62.696 C50.5999936,65.0266783 48.852011,66.9433258 46.644,68.446 C44.435989,69.9486742 41.8446815,71.0833295 38.87,71.85 C35.8953185,72.6166705 32.7213502,73 29.348,73 L7.912,73 L7.912,7.864 Z M17.02,35.372 L28.888,35.372 C30.6053419,35.372 32.2459922,35.1726687 33.81,34.774 C35.3740078,34.3753313 36.7386608,33.7620041 37.904,32.934 C39.0693392,32.1059959 39.98933,31.0633396 40.664,29.806 C41.33867,28.5486604 41.676,27.0306756 41.676,25.252 C41.676,21.7559825 40.3880129,19.2566742 37.812,17.754 C35.2359871,16.2513258 31.7706884,15.5 27.416,15.5 L17.02,15.5 L17.02,35.372 Z M17.02,65.272 L28.428,65.272 C30.3293428,65.272 32.2459903,65.103335 34.178,64.766 C36.1100097,64.428665 37.8579922,63.830671 39.422,62.972 C40.9860078,62.113329 42.2433286,60.9633405 43.194,59.522 C44.1446714,58.0806595 44.62,56.256011 44.62,54.048 C44.62,50.1839807 43.3013465,47.3933419 40.664,45.676 C38.0266535,43.9586581 34.2240248,43.1 29.256,43.1 L17.02,43.1 L17.02,65.272 Z M108.084,64.904 L137.156,64.904 L137.156,73 L98.976,73 L98.976,7.864 L108.084,7.864 L108.084,64.904 Z M180.656,73 L170.536,73 L198.78,7.864 L207.06,7.864 L235.028,73 L224.724,73 L218.1,56.992 L187.188,56.992 L180.656,73 Z M190.408,48.988 L214.788,48.988 L202.644,18.444 L190.408,48.988 Z M329.588,62.88 C327.011987,66.3760175 323.669354,69.2126558 319.56,71.39 C315.450646,73.5673442 310.513362,74.656 304.748,74.656 C299.779975,74.656 295.195354,73.8126751 290.994,72.126 C286.792646,70.4393249 283.174015,68.0780152 280.138,65.042 C277.101985,62.0059848 274.725342,58.3873543 273.008,54.186 C271.290658,49.9846457 270.432,45.3693585 270.432,40.34 C270.432,35.2493079 271.305991,30.6033543 273.054,26.402 C274.802009,22.2006457 277.224651,18.6126815 280.322,15.638 C283.419349,12.6633185 287.083979,10.3480083 291.316,8.692 C295.548021,7.03599172 300.147975,6.208 305.116,6.208 C307.324011,6.208 309.562655,6.42266452 311.832,6.852 C314.101345,7.28133548 316.278656,7.92532904 318.364,8.784 C320.449344,9.64267096 322.350658,10.7006604 324.068,11.958 C325.785342,13.2153396 327.257327,14.6719917 328.484,16.328 L321.308,21.848 C319.713325,19.639989 317.459348,17.8153405 314.546,16.374 C311.632652,14.9326595 308.48935,14.212 305.116,14.212 C301.313314,14.212 297.894015,14.9019931 294.858,16.282 C291.821985,17.6620069 289.230677,19.547988 287.084,21.94 C284.937323,24.332012 283.281339,27.1073175 282.116,30.266 C280.950661,33.4246825 280.368,36.7826489 280.368,40.34 C280.368,44.0200184 280.935328,47.4546507 282.07,50.644 C283.204672,53.8333493 284.829989,56.6086549 286.946,58.97 C289.062011,61.3313451 291.637985,63.1866599 294.674,64.536 C297.710015,65.8853401 301.098648,66.56 304.84,66.56 C308.520018,66.56 311.862652,65.8240074 314.868,64.352 C317.873348,62.8799926 320.357324,60.7333474 322.32,57.912 L329.588,62.88 Z M379.988,36.568 L380.172,36.568 L409.244,7.864 L421.848,7.864 L390.2,37.672 L423.78,73 L410.716,73 L380.172,39.328 L379.988,39.328 L379.988,73 L370.88,73 L370.88,7.864 L379.988,7.864 L379.988,36.568 Z M463.508,7.864 L485.956,7.864 C488.409346,7.864 490.862654,8.13999724 493.316,8.692 C495.769346,9.24400276 497.96199,10.1639936 499.894,11.452 C501.82601,12.7400064 503.389994,14.4266562 504.586,16.512 C505.782006,18.5973438 506.38,21.2039844 506.38,24.332 C506.38,27.9506848 505.337344,30.9866544 503.252,33.44 C501.166656,35.8933456 498.406684,37.5799954 494.972,38.5 L494.972,38.684 C497.057344,38.9293346 498.989324,39.4659959 500.768,40.294 C502.546676,41.1220041 504.079994,42.2106599 505.368,43.56 C506.656006,44.9093401 507.652663,46.5039908 508.358,48.344 C509.063337,50.1840092 509.416,52.2386553 509.416,54.508 C509.416,57.6360156 508.772006,60.3653217 507.484,62.696 C506.195994,65.0266783 504.448011,66.9433258 502.24,68.446 C500.031989,69.9486742 497.440682,71.0833295 494.466,71.85 C491.491318,72.6166705 488.31735,73 484.944,73 L463.508,73 L463.508,7.864 Z M472.616,35.372 L484.484,35.372 C486.201342,35.372 487.841992,35.1726687 489.406,34.774 C490.970008,34.3753313 492.334661,33.7620041 493.5,32.934 C494.665339,32.1059959 495.58533,31.0633396 496.26,29.806 C496.93467,28.5486604 497.272,27.0306756 497.272,25.252 C497.272,21.7559825 495.984013,19.2566742 493.408,17.754 C490.831987,16.2513258 487.366688,15.5 483.012,15.5 L472.616,15.5 L472.616,35.372 Z M472.616,65.272 L484.024,65.272 C485.925343,65.272 487.84199,65.103335 489.774,64.766 C491.70601,64.428665 493.453992,63.830671 495.018,62.972 C496.582008,62.113329 497.839329,60.9633405 498.79,59.522 C499.740671,58.0806595 500.216,56.256011 500.216,54.048 C500.216,50.1839807 498.897347,47.3933419 496.26,45.676 C493.622653,43.9586581 489.820025,43.1 484.852,43.1 L472.616,43.1 L472.616,65.272 Z M620.26,40.34 C620.26,45.3693585 619.386009,49.9846457 617.638,54.186 C615.889991,58.3873543 613.482682,62.0059848 610.416,65.042 C607.349318,68.0780152 603.700021,70.4393249 599.468,72.126 C595.235979,73.8126751 590.636025,74.656 585.668,74.656 C580.699975,74.656 576.115354,73.8126751 571.914,72.126 C567.712646,70.4393249 564.078682,68.0780152 561.012,65.042 C557.945318,62.0059848 555.553342,58.3873543 553.836,54.186 C552.118658,49.9846457 551.26,45.3693585 551.26,40.34 C551.26,35.2493079 552.118658,30.6033543 553.836,26.402 C555.553342,22.2006457 557.945318,18.6126815 561.012,15.638 C564.078682,12.6633185 567.712646,10.3480083 571.914,8.692 C576.115354,7.03599172 580.699975,6.208 585.668,6.208 C590.636025,6.208 595.235979,7.03599172 599.468,8.692 C603.700021,10.3480083 607.349318,12.6633185 610.416,15.638 C613.482682,18.6126815 615.889991,22.2006457 617.638,26.402 C619.386009,30.6033543 620.26,35.2493079 620.26,40.34 L620.26,40.34 Z M610.416,40.34 C610.416,36.7826489 609.833339,33.4246825 608.668,30.266 C607.502661,27.1073175 605.846677,24.332012 603.7,21.94 C601.553323,19.547988 598.962015,17.6620069 595.926,16.282 C592.889985,14.9019931 589.470686,14.212 585.668,14.212 C581.926648,14.212 578.538015,14.9019931 575.502,16.282 C572.465985,17.6620069 569.890011,19.547988 567.774,21.94 C565.657989,24.332012 564.017339,27.1073175 562.852,30.266 C561.686661,33.4246825 561.104,36.7826489 561.104,40.34 C561.104,43.9586848 561.686661,47.3626507 562.852,50.552 C564.017339,53.7413493 565.673323,56.5166549 567.82,58.878 C569.966677,61.2393451 572.542652,63.0946599 575.548,64.444 C578.553348,65.7933401 581.926648,66.468 585.668,66.468 C589.409352,66.468 592.813318,65.7933401 595.88,64.444 C598.946682,63.0946599 601.553323,61.2393451 603.7,58.878 C605.846677,56.5166549 607.502661,53.7413493 608.668,50.552 C609.833339,47.3626507 610.416,43.9586848 610.416,40.34 L610.416,40.34 Z M687.496,32.152 L702.952,7.864 L713.624,7.864 L692.832,38.684 L716.476,73 L704.976,73 L687.128,45.584 L669.648,73 L658.424,73 L681.7,38.5 L660.724,7.864 L671.856,7.864 L687.496,32.152 Z" id="BLACKBOX"></path>
        </g>
    </g>
</svg>
