<?xml version="1.0" encoding="UTF-8" standalone="no"?>
<svg viewBox="0 0 399 399" version="1.1" xmlns="http://www.w3.org/2000/svg" xmlns:xlink="http://www.w3.org/1999/xlink" xmlns:sketch="http://www.bohemiancoding.com/sketch/ns">
    <title>Untitled</title>
    <desc>Created with Sketch.</desc>
    <defs></defs>
    <g id="Page-1" stroke="none" stroke-width="1" fill="none" fill-rule="evenodd" sketch:type="MSPage">
        <g id="gravity_logo-final" sketch:type="MSLayerGroup" transform="translate(-1195.000000, -77.000000)" fill="#FFFFFF">
            <g id="Group" transform="translate(630.000000, 76.000000)" sketch:type="MSShapeGroup">
                <path d="M741,100.5 C741,87.5 751.6,77 764.5,77 C777.4,77 788,87.5 788,100.5 C788,113.5 777.4,124 764.5,124 C751.6,124 741,113.5 741,100.5 L741,100.5 Z" id="Shape"></path>
                <path d="M900.8,1 L627.4,1 C592.9,1 565,28.9 565,63.4 L565,336.8 C565,371.2 592.9,399.2 627.4,399.2 L900.8,399.2 C935.3,399.2 963.2,371.3 963.2,336.8 L963.2,63.4 C963.2,28.9 935.3,1 900.8,1 L900.8,1 Z M764.1,45.1 C794.7,45.1 819.5,70 819.5,100.5 C819.5,131.1 794.6,155.9 764.1,155.9 C733.6,155.9 708.7,131.1 708.7,100.5 C708.7,70 733.6,45.1 764.1,45.1 L764.1,45.1 Z M896.8,342.5 L631.3,342.5 C622.5,342.5 615.4,335.4 615.4,326.6 C615.4,317.8 622.5,310.7 631.3,310.7 L896.8,310.7 C905.6,310.7 912.8,317.8 912.8,326.6 C912.8,335.3 905.6,342.5 896.8,342.5 L896.8,342.5 Z M616.3,238.8 C619.2,230.5 628.3,226.1 636.6,229 C654.3,235.1 703.8,246.6 764.1,246.6 C839.9,246.6 891.1,229.2 891.6,229 C899.9,226.1 909,230.5 911.9,238.8 C914.8,247.1 910.4,256.2 902.1,259.1 C899.8,259.9 845.3,278.4 764.1,278.4 C683,278.4 628.4,259.8 626.2,259.1 C617.8,256.2 613.4,247.1 616.3,238.8 L616.3,238.8 Z M907,168.4 C904.6,170.4 848.3,216.4 764.1,216.4 C679.9,216.4 623.5,170.4 621.2,168.4 C614.4,162.8 613.5,152.7 619.1,145.9 C624.7,139.1 634.8,138.2 641.5,143.8 C642.3,144.5 692,184.4 764.1,184.4 C836.4,184.4 886.2,144.2 886.7,143.8 C893.5,138.2 903.5,139.1 909.1,145.9 C914.7,152.7 913.8,162.8 907,168.4 L907,168.4 Z" id="Shape"></path>
            </g>
        </g>
    </g>
</svg>
