<?xml version="1.0" encoding="UTF-8" standalone="no"?>
<svg width="809px" height="566px" viewBox="0 0 809 566" version="1.1" xmlns="http://www.w3.org/2000/svg" xmlns:xlink="http://www.w3.org/1999/xlink" xmlns:sketch="http://www.bohemiancoding.com/sketch/ns">
    <!-- Generator: Sketch 3.4 (15588) - http://www.bohemiancoding.com/sketch -->
    <title>Group</title>
    <desc>Created with Sketch.</desc>
    <defs></defs>
    <g id="Page-1" stroke="none" stroke-width="1" fill="none" fill-rule="evenodd" sketch:type="MSPage">
        <g id="Group" sketch:type="MSLayerGroup" fill="#FFFFFF">
            <g transform="translate(268.000000, 0.000000)" id="Shape" sketch:type="MSShapeGroup">
                <path d="M118.8,67.8 C118.8,59.1 125.9,52 134.6,52 C143.3,52 150.4,59.1 150.4,67.8 C150.4,76.5 143.3,83.6 134.6,83.6 C125.9,83.6 118.8,76.6 118.8,67.8 L118.8,67.8 Z"></path>
                <path d="M226.7,0.8 L42.6,0.8 C19.4,0.8 0.6,19.6 0.6,42.8 L0.6,226.9 C0.6,250.1 19.4,268.9 42.6,268.9 L226.7,268.9 C249.9,268.9 268.7,250.1 268.7,226.9 L268.7,42.8 C268.7,19.6 249.9,0.8 226.7,0.8 L226.7,0.8 Z M134.6,30.5 C155.2,30.5 171.9,47.2 171.9,67.8 C171.9,88.4 155.2,105.1 134.6,105.1 C114,105.1 97.3,88.4 97.3,67.8 C97.3,47.3 114.1,30.5 134.6,30.5 L134.6,30.5 Z M224,230.7 L45.3,230.7 C39.4,230.7 34.6,225.9 34.6,220 C34.6,214.1 39.4,209.3 45.3,209.3 L224,209.3 C229.9,209.3 234.7,214.1 234.7,220 C234.7,225.9 229.9,230.7 224,230.7 L224,230.7 Z M35.1,160.9 C37,155.3 43.2,152.3 48.8,154.3 C60.7,158.4 94,166.1 134.6,166.1 C185.7,166.1 220.1,154.4 220.4,154.3 C226,152.4 232.1,155.3 234.1,160.9 C236.1,166.5 233.1,172.6 227.5,174.6 C226,175.1 189.3,187.6 134.6,187.6 C80,187.6 43.3,175.1 41.7,174.6 C36.2,172.6 33.2,166.5 35.1,160.9 L35.1,160.9 Z M230.8,113.5 C229.2,114.8 191.3,145.8 134.6,145.8 C77.9,145.8 40,114.8 38.4,113.5 C33.8,109.7 33.2,102.9 37,98.4 C40.8,93.8 47.5,93.2 52.1,97 C52.6,97.4 86.1,124.4 134.6,124.4 C183.3,124.4 216.8,97.3 217.1,97 C221.7,93.2 228.4,93.9 232.2,98.4 C236,103 235.4,109.7 230.8,113.5 L230.8,113.5 Z"></path>
            </g>
            <g transform="translate(0.000000, 333.000000)" sketch:type="MSShapeGroup">
                <g transform="translate(0.000000, 11.000000)" id="Shape">
                    <path d="M103.9,36.6 L103.9,55.1 L103.4,55.1 C98.9,47.6 93,42 85.4,38.4 C77.9,34.8 69.8,33 61,33 C51.8,33 43.4,34.7 36,38.1 C28.6,41.5 22.2,46.1 17,52 C11.8,57.8 7.8,64.6 4.9,72.5 C2.1,80.4 0.7,88.8 0.7,97.6 C0.7,106.3 2.2,114.6 5.1,122.3 C8,130.1 12.1,136.9 17.3,142.7 C22.5,148.5 28.9,153.1 36.4,156.5 C43.9,159.9 52.3,161.6 61.5,161.6 C70.1,161.6 77.8,160 84.7,156.8 C91.6,153.6 97.3,149 101.7,142.9 L102.2,142.9 L102.2,151.9 C102.2,158.1 101.6,163.8 100.3,168.9 C99,174.1 96.9,178.5 93.9,182.3 C90.9,186.1 86.9,189 81.8,191.2 C76.8,193.4 70.6,194.4 63.2,194.4 C55.5,194.4 47.9,192.9 40.4,189.9 C32.9,186.9 29.5,185.4 21.5,179.6 L6.4,202.1 C6.4,202.1 11.4,206.6 16.5,209.5 C21.4,212.3 25.9,214.2 31.3,216 C36.7,217.7 42.2,219 47.7,219.8 C53.2,220.6 58.5,221.1 63.5,221.1 C75.5,221.1 85.8,219.4 94.5,216 C103.2,212.6 110.4,207.7 116.2,201.5 C121.9,195.2 126.2,187.6 128.9,178.7 C131.6,169.7 133,159.7 133,148.6 L133,36.6 L103.9,36.6 L103.9,36.6 Z M101.3,112 C99.6,116.7 97.2,120.8 94,124.4 C90.8,128 87,130.8 82.5,133 C78,135.1 72.9,136.2 67.2,136.2 C61.7,136.2 56.8,135.1 52.5,132.9 C48.1,130.7 44.5,127.7 41.5,124.1 C38.5,120.4 36.2,116.3 34.6,111.7 C33,107.1 32.2,102.3 32.2,97.4 C32.2,92 33,86.8 34.6,82.1 C36.2,77.3 38.5,73.2 41.5,69.7 C44.5,66.2 48.2,63.4 52.5,61.4 C56.9,59.4 61.9,58.3 67.5,58.3 C73.1,58.3 78.2,59.3 82.6,61.4 C87,63.4 90.8,66.3 94,69.8 C97.2,73.4 99.6,77.6 101.3,82.3 C103,87.1 103.9,92.1 103.9,97.4 C103.9,102.4 103,107.3 101.3,112 L101.3,112 Z"></path>
                    <path d="M234.1,33.1 C232.7,33 231.4,33 230.3,33 C222.1,33 214.9,35.2 208.8,39.7 C202.6,44.1 197.8,50 194.4,57.1 L193.9,57.1 L193.9,36.6 L164.4,36.6 L164.4,159.7 L195.2,159.7 L195.2,93.8 C195.2,91.6 195.6,88.6 196.5,84.8 C197.3,81 199,77.4 201.4,73.8 C203.8,70.2 207.1,67.1 211.4,64.6 C215.7,62 221.3,60.8 228.3,60.8 C229.7,60.8 231.1,60.9 232.5,61.1 C234,61.3 235.7,61.6 237.8,62.1 L237.8,33.9 C236.7,33.4 235.5,33.2 234.1,33.1 L234.1,33.1 Z"></path>
                    <path d="M359.3,66.4 C357.7,60.2 354.8,54.7 350.7,49.7 C346.6,44.7 341,40.7 333.9,37.6 C326.8,34.5 317.8,33 306.8,33 C297.4,33 288.1,34.6 279,37.9 C269.9,41.2 261.8,46 254.8,52.5 L270.7,71.2 C274.6,67.3 279.6,63.9 285.6,61.2 C291.6,58.5 297.8,57.1 304.3,57.1 C312,57.1 318.6,58.9 324.2,62.6 C329.8,66.3 332.5,72 332.5,79.6 L332.5,82.7 C322.9,82.7 313.1,83.2 303.1,84.1 C293.1,85 284,87 275.8,89.9 C267.6,92.8 260.9,97 255.7,102.5 C250.5,108 247.9,115.3 247.9,124.6 C247.9,131.8 249.4,137.8 252.4,142.7 C255.4,147.6 259.2,151.5 263.7,154.5 C268.2,157.5 273.2,159.6 278.6,160.9 C284,162.2 289.1,162.8 294.1,162.8 C302.8,162.8 310.6,161 317.4,157.5 C324.2,154 329.2,149.5 332.3,144 L333.1,144 L333.1,159.6 L361.8,159.6 L361.8,84.7 C361.7,78.7 360.9,72.5 359.3,66.4 L359.3,66.4 Z M332.5,107.9 C332.5,117.7 329.8,125.3 324.3,131 C318.8,136.6 310.8,139.5 300.2,139.5 C297.6,139.5 295.1,139.2 292.5,138.7 C289.9,138.2 287.6,137.3 285.6,136.1 C283.6,134.9 281.9,133.3 280.6,131.4 C279.3,129.4 278.7,127 278.7,124.1 C278.7,119.5 280.2,115.9 283.3,113.2 C286.4,110.5 290.2,108.5 294.8,107 C299.4,105.6 304.5,104.6 309.9,104.2 C315.4,103.8 320.6,103.6 325.5,103.6 L332.4,103.6 L332.4,107.9 L332.5,107.9 Z"></path>
                    <path d="M471,36.6 L438.4,126.4 L437.9,126.4 L405.6,36.6 L372,36.6 L421.8,159.7 L454.6,159.7 L503.6,36.6 L471,36.6 L471,36.6 Z"></path>
                    <path d="M540.5,52.2 C535.1,52.2 529.9,51.2 525.1,49.5 L525.1,159.7 L555.9,159.7 L555.9,49.5 C551.1,51.2 545.9,52.2 540.5,52.2 L540.5,52.2 Z"></path>
                    <path d="M776,36.6 L745.5,126.1 L745,126.1 L710.6,36.6 L676.5,36.6 L729.3,159.7 L723.1,175.3 C721.7,178.5 720.4,181.4 719.3,183.8 C718.1,186.2 716.7,188.2 715.2,189.8 C713.7,191.4 711.8,192.6 709.6,193.4 C707.4,194.2 704.6,194.5 701.4,194.5 C699.7,194.5 697.8,194.4 695.9,194.1 C693.9,193.8 691.9,193.4 689.9,192.7 L687.3,219.4 C690,220.1 692.7,220.6 695.4,220.8 C698.1,221.1 700.7,221.2 703.2,221.2 C710,221.2 715.9,220.4 720.8,218.9 C725.7,217.4 729.9,215.1 733.5,212.1 C737.1,209.1 740.2,205.4 742.7,201.1 C745.3,196.7 747.7,191.7 749.9,186.1 L808.1,36.6 L776,36.6 L776,36.6 Z"></path>
                    <path d="M660.3,61.2 L660.3,36.6 L629.5,36.6 L629.5,0.9 L599.2,0.9 L599.2,36.6 L577.7,36.6 L577.7,61.2 L599.2,61.2 L599.2,118.7 C599.2,124.7 599.8,130.3 600.9,135.5 C602,140.7 604.1,145.3 607,149.4 C610,153.4 614.1,156.6 619.2,158.9 C624.3,161.2 631,162.4 639.2,162.4 C642.6,162.4 646.2,162.1 650,161.5 C653.8,160.9 657,160.1 659.8,159.1 L658.8,135 C656.9,135.8 654.8,136.5 652.4,136.9 C650,137.3 647.8,137.5 645.7,137.5 C638.9,137.5 634.5,135.7 632.5,132.1 C630.5,128.5 629.5,124 629.5,118.5 L629.5,61.3 L660.3,61.3 L660.3,61.2 Z"></path>
                </g>
                <circle id="Oval" cx="540.2" cy="20" r="19.4"></circle>
            </g>
        </g>
    </g>
</svg>