<?xml version="1.0" standalone="no"?>
<!DOCTYPE svg PUBLIC "-//W3C//DTD SVG 20010904//EN"
 "http://www.w3.org/TR/2001/REC-SVG-20010904/DTD/svg10.dtd">
<svg version="1.0" xmlns="http://www.w3.org/2000/svg"
 width="2048.000000pt" height="2048.000000pt" viewBox="0 0 2048.000000 2048.000000"
 preserveAspectRatio="xMidYMid meet">
<metadata>
Created by potrace 1.11, written by Peter Selinger 2001-2013
</metadata>
<g transform="translate(0.000000,2048.000000) scale(0.100000,-0.100000)"
fill="#000000" stroke="none">
<path d="M0 10240 l0 -10240 10240 0 10240 0 0 10240 0 10240 -10240 0 -10240
0 0 -10240z m10625 6930 c250 -39 479 -112 710 -224 496 -242 902 -649 1140
-1141 79 -164 117 -265 161 -424 233 -848 10 -1734 -596 -2374 -369 -390 -854
-645 -1405 -739 -179 -30 -568 -33 -750 -4 -273 42 -486 110 -740 236 -705
349 -1189 990 -1339 1775 -29 151 -39 295 -33 513 5 236 23 365 77 568 143
536 469 1018 915 1351 338 253 768 426 1175 472 52 6 111 13 130 15 89 11 431
-4 555 -24z m-6152 -4250 c113 -28 195 -73 357 -196 575 -433 1408 -877 2190
-1169 852 -318 1665 -499 2590 -577 243 -20 1093 -17 1335 5 816 75 1501 219
2243 471 910 310 1826 781 2493 1283 210 157 323 203 509 203 119 0 210 -22
320 -76 79 -39 110 -62 180 -133 72 -72 94 -102 132 -181 117 -240 104 -493
-37 -710 -68 -105 -184 -205 -480 -412 -704 -492 -1597 -948 -2480 -1263 -863
-309 -1790 -513 -2675 -589 -547 -48 -1219 -50 -1755 -5 -1619 133 -3244 659
-4668 1511 -313 187 -643 411 -847 575 -197 158 -285 336 -284 573 0 132 16
205 71 316 143 295 490 455 806 374z m165 -3989 c979 -311 2472 -575 3872
-685 984 -78 2069 -89 3045 -31 1562 93 3267 380 4365 736 199 65 358 65 525
0 286 -111 474 -405 452 -705 -20 -265 -175 -491 -412 -601 -150 -70 -764
-240 -1310 -364 -1240 -279 -2508 -443 -3990 -513 -340 -16 -1548 -16 -1895 0
-1308 61 -2403 190 -3535 417 -727 145 -1564 365 -1770 465 -146 70 -252 180
-326 335 -164 343 -15 771 327 940 118 58 200 76 339 71 114 -3 129 -6 313
-65z m11726 -3621 c121 -31 227 -92 321 -185 91 -91 144 -175 182 -290 24 -71
27 -95 27 -220 0 -124 -3 -149 -26 -217 -40 -121 -92 -204 -182 -293 -131
-128 -248 -185 -427 -205 -66 -8 -1855 -10 -6084 -8 -5678 3 -5993 4 -6050 21
-173 50 -330 161 -418 295 -177 266 -166 595 28 850 91 120 254 226 397 257
53 11 1020 14 6109 14 6000 1 6046 1 6123 -19z"/>
<path d="M10030 15751 c-318 -70 -581 -275 -725 -566 -81 -162 -108 -273 -109
-455 0 -85 5 -170 12 -205 75 -344 281 -609 587 -756 55 -26 133 -57 174 -68
666 -183 1331 327 1331 1021 0 470 -312 877 -775 1014 -123 36 -365 44 -495
15z"/>
</g>
</svg>
